<svg xmlns="http://www.w3.org/2000/svg" width="1600" height="420" viewBox="0 0 1600 420" role="img" aria-labelledby="title description">
  <title id="title">spellpress public issue tracker</title>
  <desc id="description">The spellpress nine-card sheet mark, wordmark, and public issue tracker label on a precise print-production grid.</desc>
  <defs>
    <pattern id="grid" width="24" height="24" patternUnits="userSpaceOnUse">
      <path d="M24 0H0V24" fill="none" stroke="#282d38" stroke-width="1"/>
    </pattern>
    <linearGradient id="fade" x1="0" y1="0" x2="1" y2="0">
      <stop offset="0" stop-color="#14161c" stop-opacity="0"/>
      <stop offset="1" stop-color="#14161c"/>
    </linearGradient>
  </defs>

  <rect width="1600" height="420" fill="#14161c"/>
  <rect width="1600" height="420" fill="url(#grid)" opacity="0.7"/>
  <rect x="760" width="840" height="420" fill="url(#fade)"/>

  <g fill="none" stroke="#343a46" stroke-width="1">
    <path d="M32 54H1568M32 366H1568"/>
    <path d="M56 32V388M1544 32V388"/>
    <path d="M56 42v24M80 48v12M104 48v12M128 48v12M152 48v12M176 42v24M200 48v12M224 48v12M248 48v12M272 48v12M296 42v24M320 48v12M344 48v12M368 48v12M392 48v12M416 42v24"/>
  </g>

  <g transform="translate(88 73) scale(2.28)" fill="none">
    <g fill="#7d9bff">
      <rect x="26" y="17" width="21" height="27" rx="2"/>
      <rect x="49.5" y="17" width="21" height="27" rx="2"/>
      <rect x="73" y="17" width="21" height="27" rx="2"/>
      <rect x="26" y="46.5" width="21" height="27" rx="2"/>
      <rect x="49.5" y="46.5" width="21" height="27" rx="2"/>
      <rect x="73" y="46.5" width="21" height="27" rx="2"/>
      <rect x="26" y="76" width="21" height="27" rx="2"/>
      <rect x="49.5" y="76" width="21" height="27" rx="2"/>
      <rect x="73" y="76" width="21" height="27" rx="2"/>
    </g>
    <g stroke="#7d9bff" stroke-width="4.5" stroke-linecap="round" stroke-linejoin="round">
      <path d="M33 10H23a4 4 0 0 0-4 4v10"/>
      <path d="M87 10h10a4 4 0 0 1 4 4v10"/>
      <path d="M101 96v10a4 4 0 0 1-4 4H87"/>
      <path d="M19 96v10a4 4 0 0 0 4 4h10"/>
    </g>
  </g>

  <g transform="translate(430 0)">
    <text x="0" y="190" fill="#edeff3" font-family="Inter, system-ui, -apple-system, Segoe UI, sans-serif" font-size="78" font-weight="650" letter-spacing="-1.6">spellpress</text>
    <path d="M2 224H970" stroke="#7d9bff" stroke-width="3"/>
    <text x="2" y="274" fill="#b6bcc8" font-family="ui-monospace, SFMono-Regular, Menlo, Consolas, monospace" font-size="26" font-weight="600" letter-spacing="4">PUBLIC ISSUE TRACKER</text>
    <text x="2" y="316" fill="#939aa8" font-family="ui-monospace, SFMono-Regular, Menlo, Consolas, monospace" font-size="16" letter-spacing="2">BUGS  /  FEATURES  /  CARD + PRINTING DATA</text>
  </g>

  <g fill="none" stroke="#7d9bff" stroke-width="2">
    <circle cx="1490" cy="210" r="20"/>
    <circle cx="1490" cy="210" r="5" fill="#7d9bff"/>
    <path d="M1454 210h72M1490 174v72"/>
  </g>
</svg>
